<svg xmlns="http://www.w3.org/2000/svg" xmlns:xlink="http://www.w3.org/1999/xlink" width="500" zoomAndPan="magnify" viewBox="0 0 375 374.999991" height="500" preserveAspectRatio="xMidYMid meet" version="1.0"><defs><clipPath id="9e575c068e"><path d="M 1.804688 18.75 L 373.054688 18.75 L 373.054688 356.25 L 1.804688 356.25 Z M 1.804688 18.75 " clip-rule="nonzero"/></clipPath></defs><g clip-path="url(#9e575c068e)"><path fill="#ffffff" d="M 81.894531 18.78125 L 52.527344 18.914062 C 43.210938 18.949219 35.699219 26.539062 35.75 35.855469 C 35.785156 45.1875 43.378906 52.699219 52.691406 52.664062 L 70.753906 52.597656 L 80.445312 75.867188 C 83.078125 82.144531 89.234375 86.25 96.035156 86.25 L 191.613281 86.28125 L 108.523438 218.316406 C 101.773438 229.117188 101.425781 242.757812 107.601562 253.878906 C 113.777344 265 125.496094 271.90625 138.222656 271.90625 L 322.460938 271.90625 C 331.777344 271.90625 339.335938 264.347656 339.335938 255.03125 C 339.335938 245.71875 331.777344 238.15625 322.460938 238.15625 L 138.222656 238.15625 L 137.132812 236.179688 L 157.007812 204.40625 L 280.636719 204.40625 C 292.90625 204.40625 304.179688 197.753906 310.136719 187.039062 L 370.945312 77.582031 C 373.863281 72.351562 373.785156 66.003906 370.746094 60.839844 C 367.710938 55.691406 362.152344 52.53125 356.179688 52.53125 L 107.304688 52.53125 L 97.582031 29.164062 C 94.949219 22.855469 88.746094 18.75 81.894531 18.78125 Z M 1.871094 120 L 1.871094 153.75 L 109.183594 153.75 L 109.875 152.726562 L 130.441406 120 Z M 1.871094 187.5 L 1.871094 221.25 L 66.667969 221.25 L 88.089844 187.5 Z M 136.835938 288.78125 C 135.730469 288.78125 134.628906 288.835938 133.527344 288.945312 C 132.429688 289.054688 131.335938 289.214844 130.253906 289.429688 C 129.167969 289.648438 128.097656 289.914062 127.039062 290.234375 C 125.980469 290.558594 124.941406 290.929688 123.921875 291.351562 C 122.898438 291.773438 121.902344 292.246094 120.925781 292.769531 C 119.953125 293.289062 119.003906 293.855469 118.085938 294.472656 C 117.167969 295.085938 116.28125 295.742188 115.425781 296.445312 C 114.570312 297.144531 113.753906 297.886719 112.972656 298.667969 C 112.191406 299.449219 111.449219 300.269531 110.746094 301.121094 C 110.046875 301.976562 109.390625 302.863281 108.773438 303.78125 C 108.160156 304.703125 107.59375 305.648438 107.070312 306.625 C 106.550781 307.597656 106.078125 308.597656 105.65625 309.617188 C 105.234375 310.636719 104.859375 311.679688 104.539062 312.734375 C 104.21875 313.792969 103.949219 314.863281 103.734375 315.949219 C 103.519531 317.03125 103.359375 318.125 103.25 319.226562 C 103.140625 320.324219 103.085938 321.425781 103.085938 322.53125 C 103.085938 323.636719 103.140625 324.742188 103.25 325.839844 C 103.359375 326.941406 103.519531 328.03125 103.734375 329.117188 C 103.949219 330.203125 104.21875 331.273438 104.539062 332.328125 C 104.859375 333.386719 105.234375 334.425781 105.65625 335.449219 C 106.078125 336.46875 106.550781 337.46875 107.070312 338.441406 C 107.59375 339.417969 108.160156 340.363281 108.773438 341.285156 C 109.390625 342.203125 110.046875 343.089844 110.746094 343.945312 C 111.449219 344.796875 112.191406 345.617188 112.972656 346.398438 C 113.753906 347.179688 114.570312 347.921875 115.425781 348.621094 C 116.28125 349.324219 117.167969 349.980469 118.085938 350.59375 C 119.003906 351.210938 119.953125 351.777344 120.925781 352.296875 C 121.902344 352.820312 122.898438 353.289062 123.921875 353.714844 C 124.941406 354.136719 125.980469 354.507812 127.039062 354.828125 C 128.097656 355.152344 129.167969 355.417969 130.253906 355.632812 C 131.335938 355.851562 132.429688 356.011719 133.527344 356.121094 C 134.628906 356.230469 135.730469 356.28125 136.835938 356.28125 C 137.941406 356.28125 139.042969 356.230469 140.144531 356.121094 C 141.246094 356.011719 142.335938 355.851562 143.421875 355.632812 C 144.503906 355.417969 145.578125 355.152344 146.632812 354.828125 C 147.691406 354.507812 148.730469 354.136719 149.753906 353.714844 C 150.773438 353.289062 151.773438 352.820312 152.746094 352.296875 C 153.722656 351.777344 154.667969 351.210938 155.585938 350.59375 C 156.507812 349.980469 157.394531 349.324219 158.246094 348.621094 C 159.101562 347.921875 159.921875 347.179688 160.703125 346.398438 C 161.484375 345.617188 162.226562 344.796875 162.925781 343.945312 C 163.628906 343.089844 164.285156 342.203125 164.898438 341.285156 C 165.511719 340.363281 166.082031 339.417969 166.601562 338.441406 C 167.121094 337.46875 167.59375 336.46875 168.019531 335.449219 C 168.441406 334.425781 168.8125 333.386719 169.132812 332.328125 C 169.453125 331.273438 169.722656 330.203125 169.9375 329.117188 C 170.152344 328.03125 170.316406 326.941406 170.425781 325.839844 C 170.53125 324.742188 170.585938 323.636719 170.585938 322.53125 C 170.585938 321.425781 170.53125 320.324219 170.425781 319.226562 C 170.316406 318.125 170.152344 317.03125 169.9375 315.949219 C 169.722656 314.863281 169.453125 313.792969 169.132812 312.734375 C 168.8125 311.679688 168.441406 310.636719 168.019531 309.617188 C 167.59375 308.597656 167.121094 307.597656 166.601562 306.625 C 166.082031 305.648438 165.511719 304.703125 164.898438 303.78125 C 164.285156 302.863281 163.628906 301.976562 162.925781 301.121094 C 162.226562 300.269531 161.484375 299.449219 160.703125 298.667969 C 159.921875 297.886719 159.101562 297.144531 158.246094 296.445312 C 157.394531 295.742188 156.507812 295.085938 155.585938 294.472656 C 154.667969 293.855469 153.722656 293.289062 152.746094 292.769531 C 151.773438 292.246094 150.773438 291.773438 149.753906 291.351562 C 148.730469 290.929688 147.691406 290.558594 146.632812 290.234375 C 145.578125 289.914062 144.503906 289.648438 143.421875 289.429688 C 142.335938 289.214844 141.246094 289.054688 140.144531 288.945312 C 139.042969 288.835938 137.941406 288.78125 136.835938 288.78125 Z M 305.585938 288.78125 C 304.480469 288.78125 303.378906 288.835938 302.277344 288.945312 C 301.179688 289.054688 300.085938 289.214844 299.003906 289.429688 C 297.917969 289.648438 296.847656 289.914062 295.789062 290.234375 C 294.730469 290.558594 293.691406 290.929688 292.671875 291.351562 C 291.648438 291.773438 290.652344 292.246094 289.675781 292.769531 C 288.703125 293.289062 287.753906 293.855469 286.835938 294.472656 C 285.917969 295.085938 285.03125 295.742188 284.175781 296.445312 C 283.320312 297.144531 282.503906 297.886719 281.722656 298.667969 C 280.941406 299.449219 280.199219 300.269531 279.496094 301.121094 C 278.796875 301.976562 278.140625 302.863281 277.523438 303.78125 C 276.910156 304.703125 276.34375 305.648438 275.820312 306.625 C 275.300781 307.597656 274.828125 308.597656 274.40625 309.617188 C 273.984375 310.636719 273.609375 311.679688 273.289062 312.734375 C 272.96875 313.792969 272.699219 314.863281 272.484375 315.949219 C 272.269531 317.03125 272.109375 318.125 272 319.226562 C 271.890625 320.324219 271.835938 321.425781 271.835938 322.53125 C 271.835938 323.636719 271.890625 324.742188 272 325.839844 C 272.109375 326.941406 272.269531 328.03125 272.484375 329.117188 C 272.699219 330.203125 272.96875 331.273438 273.289062 332.328125 C 273.609375 333.386719 273.984375 334.425781 274.40625 335.449219 C 274.828125 336.46875 275.300781 337.46875 275.820312 338.441406 C 276.34375 339.417969 276.910156 340.363281 277.523438 341.285156 C 278.140625 342.203125 278.796875 343.089844 279.496094 343.945312 C 280.199219 344.796875 280.941406 345.617188 281.722656 346.398438 C 282.503906 347.179688 283.320312 347.921875 284.175781 348.621094 C 285.03125 349.324219 285.917969 349.980469 286.835938 350.59375 C 287.753906 351.210938 288.703125 351.777344 289.675781 352.296875 C 290.652344 352.820312 291.648438 353.289062 292.671875 353.714844 C 293.691406 354.136719 294.730469 354.507812 295.789062 354.828125 C 296.847656 355.152344 297.917969 355.417969 299.003906 355.632812 C 300.085938 355.851562 301.179688 356.011719 302.277344 356.121094 C 303.378906 356.230469 304.480469 356.28125 305.585938 356.28125 C 306.691406 356.28125 307.792969 356.230469 308.894531 356.121094 C 309.996094 356.011719 311.085938 355.851562 312.171875 355.632812 C 313.253906 355.417969 314.324219 355.152344 315.382812 354.828125 C 316.441406 354.507812 317.480469 354.136719 318.503906 353.714844 C 319.523438 353.289062 320.523438 352.820312 321.496094 352.296875 C 322.472656 351.777344 323.417969 351.210938 324.335938 350.59375 C 325.257812 349.980469 326.144531 349.324219 326.996094 348.621094 C 327.851562 347.921875 328.671875 347.179688 329.453125 346.398438 C 330.234375 345.617188 330.976562 344.796875 331.675781 343.945312 C 332.378906 343.089844 333.035156 342.203125 333.648438 341.285156 C 334.261719 340.363281 334.832031 339.417969 335.351562 338.441406 C 335.871094 337.46875 336.34375 336.46875 336.769531 335.449219 C 337.191406 334.425781 337.5625 333.386719 337.882812 332.328125 C 338.203125 331.273438 338.472656 330.203125 338.6875 329.117188 C 338.902344 328.03125 339.066406 326.941406 339.175781 325.839844 C 339.28125 324.742188 339.335938 323.636719 339.335938 322.53125 C 339.335938 321.425781 339.28125 320.324219 339.175781 319.226562 C 339.066406 318.125 338.902344 317.03125 338.6875 315.949219 C 338.472656 314.863281 338.203125 313.792969 337.882812 312.734375 C 337.5625 311.679688 337.191406 310.636719 336.769531 309.617188 C 336.34375 308.597656 335.871094 307.597656 335.351562 306.625 C 334.832031 305.648438 334.261719 304.703125 333.648438 303.78125 C 333.035156 302.863281 332.378906 301.976562 331.675781 301.121094 C 330.976562 300.269531 330.234375 299.449219 329.453125 298.667969 C 328.671875 297.886719 327.851562 297.144531 326.996094 296.445312 C 326.144531 295.742188 325.257812 295.085938 324.335938 294.472656 C 323.417969 293.855469 322.472656 293.289062 321.496094 292.769531 C 320.523438 292.246094 319.523438 291.773438 318.503906 291.351562 C 317.480469 290.929688 316.441406 290.558594 315.382812 290.234375 C 314.324219 289.914062 313.253906 289.648438 312.171875 289.429688 C 311.085938 289.214844 309.996094 289.054688 308.894531 288.945312 C 307.792969 288.835938 306.691406 288.78125 305.585938 288.78125 Z M 305.585938 288.78125 " fill-opacity="1" fill-rule="nonzero"/></g></svg>